<svg width="29" height="31" fill="none" xmlns="http://www.w3.org/2000/svg"><path d="M20.942 12.315a.925.925 0 00-.57-.847 9.366 9.366 0 01-5.024-5.001.935.935 0 00-1.72 0 9.34 9.34 0 01-5.001 4.989.925.925 0 00-.57.847c0 .376.219.703.558.86 2.18.957 3.996 2.797 5 5.062a.918.918 0 001.695-.012c.946-2.192 2.798-4.033 5.063-5.038a.948.948 0 00.569-.86zm-6.479 4.965c-1.077-2.155-2.833-3.923-4.916-4.965A10.548 10.548 0 0014.476 7.4a10.488 10.488 0 004.964 4.929c-2.155 1.09-3.935 2.857-4.977 4.952z" fill="#FF7B7A"/><path d="M20.288 21.894c.11.036.255.084.436.072.29-.012.557-.133.763-.339.218-.218.34-.508.327-.811a4.27 4.27 0 013.003-4.154.973.973 0 00.351-.181 1.1 1.1 0 00.436-.727 1.152 1.152 0 00-.206-.86c-1.138-1.537-1.15-3.596-.012-5.11l.146-.17.06-.18c.097-.292.06-.606-.072-.86a1.138 1.138 0 00-.667-.57 4.291 4.291 0 01-3.003-4.141c0-.146-.024-.279-.06-.4a1.18 1.18 0 00-.581-.654 1.089 1.089 0 00-.848-.048 4.13 4.13 0 01-1.38.23 4.298 4.298 0 01-3.5-1.804 1.384 1.384 0 00-.267-.267 1.142 1.142 0 00-1.586.267 4.266 4.266 0 01-3.5 1.804 4.01 4.01 0 01-1.368-.23c-.387-.133-.884-.036-1.175.278a1.083 1.083 0 00-.326.812 4.259 4.259 0 01-2.992 4.141 1.137 1.137 0 00-.363.182 1.151 1.151 0 00-.23 1.598 4.287 4.287 0 010 5.134 1.203 1.203 0 00-.17.327c-.084.291-.06.582.085.872.146.267.388.473.666.557a4.272 4.272 0 012.991 4.13.948.948 0 00.06.411c.098.279.304.509.582.654.279.134.57.146.848.049a4.32 4.32 0 011.404-.23c1.405 0 2.665.666 3.488 1.816.073.097.17.194.267.267.193.145.423.218.653.218.06 0 .134 0 .194-.013a1.12 1.12 0 00.739-.46c1.041-1.574 2.99-2.216 4.807-1.61zm-5.776.92a5.437 5.437 0 00-4.432-2.3 4.78 4.78 0 00-1.744.314 5.363 5.363 0 00-3.79-5.231c1.441-1.95 1.441-4.566-.012-6.479A5.41 5.41 0 008.36 3.887a5.424 5.424 0 001.708.279c1.768 0 3.427-.86 4.408-2.301a5.465 5.465 0 004.456 2.3c.593 0 1.187-.096 1.72-.302-.025 2.385 1.489 4.48 3.765 5.231a5.45 5.45 0 000 6.466c-2.288.74-3.814 2.846-3.766 5.232h-.012c-2.276-.775-4.77.036-6.127 2.022z" fill="#FF7B7A"/><path d="M10.734 23.432a.582.582 0 00-.8.17l-2.833 4.334L5.54 24.74l-3.245-.012 2.967-4.54a.571.571 0 00-.17-.8.571.571 0 00-.8.17L.152 25.89l4.674.012 2.143 4.383 3.948-6.054a.585.585 0 00-.182-.8zm13.974-3.888a.584.584 0 00-.799-.17.584.584 0 00-.17.8l2.98 4.553-3.246.012-1.562 3.197-2.846-4.347a.584.584 0 00-.799-.17.584.584 0 00-.17.8l3.96 6.066 2.144-4.383 4.674-.012-4.166-6.346z" fill="#FF7B7A"/></svg>