<svg height="512pt" viewBox="0 0 512 512" width="512pt" xmlns="http://www.w3.org/2000/svg"><path d="M351.64 346.855h-29.28c-12.329 0-22.36 10.028-22.36 22.36v29.281c0 12.328 10.031 22.36 22.36 22.36h29.28c12.329 0 22.36-10.032 22.36-22.36v-29.281c0-12.328-10.031-22.36-22.36-22.36zm7.36 51.641c0 4.059-3.3 7.36-7.36 7.36h-29.28a7.367 7.367 0 01-7.36-7.36v-29.281c0-4.059 3.3-7.36 7.36-7.36h29.28c4.06 0 7.36 3.301 7.36 7.36zm90.64-51.641h-29.28c-12.329 0-22.36 10.028-22.36 22.36v29.281c0 12.328 10.031 22.36 22.36 22.36h29.28c12.329 0 22.36-10.032 22.36-22.36v-29.281c0-12.328-10.031-22.36-22.36-22.36zm7.36 51.641c0 4.059-3.3 7.36-7.36 7.36h-29.28a7.367 7.367 0 01-7.36-7.36v-29.281c0-4.059 3.3-7.36 7.36-7.36h29.28c4.06 0 7.36 3.301 7.36 7.36zM55.492 213.516h32.184c9.086 0 16.476-7.391 16.476-16.48v-49.083c0-9.086-7.39-16.476-16.476-16.476H55.492c-9.086 0-16.476 7.39-16.476 16.476v49.082c0 9.086 7.39 16.48 16.476 16.48zm-1.476-65.563a1.48 1.48 0 011.476-1.476h32.184a1.48 1.48 0 011.476 1.476v49.082c0 .817-.66 1.48-1.476 1.48H55.492a1.481 1.481 0 01-1.476-1.48zm130.144 16.961h32.18c9.086 0 16.48-7.394 16.48-16.48V99.352c0-9.086-7.39-16.48-16.48-16.48h-32.18c-9.086 0-16.48 7.394-16.48 16.48v49.082c0 9.086 7.394 16.48 16.48 16.48zm-1.48-65.562c0-.817.664-1.48 1.48-1.48h32.18c.816 0 1.48.663 1.48 1.48v49.082c0 .816-.664 1.48-1.48 1.48h-32.18c-.816 0-1.48-.664-1.48-1.48zm1.48 171.562h32.18c9.086 0 16.48-7.394 16.48-16.48v-49.082c0-9.086-7.39-16.48-16.48-16.48h-32.18c-9.086 0-16.48 7.394-16.48 16.48v49.082c0 9.086 7.394 16.48 16.48 16.48zm-1.48-65.562c0-.817.664-1.48 1.48-1.48h32.18c.816 0 1.48.663 1.48 1.48v49.082c0 .816-.664 1.48-1.48 1.48h-32.18c-.816 0-1.48-.664-1.48-1.48zm112.98-40.438h32.18c9.086 0 16.48-7.394 16.48-16.48V99.352c0-9.086-7.39-16.48-16.48-16.48h-32.18c-9.086 0-16.48 7.394-16.48 16.48v49.082c0 9.086 7.394 16.48 16.48 16.48zm-1.48-65.562c0-.817.664-1.48 1.48-1.48h32.18c.816 0 1.48.663 1.48 1.48v49.082c0 .816-.664 1.48-1.48 1.48h-32.18c-.816 0-1.48-.664-1.48-1.48zm1.48 171.562h32.18c9.086 0 16.48-7.394 16.48-16.48v-49.082c0-9.086-7.39-16.48-16.48-16.48h-32.18c-9.086 0-16.48 7.394-16.48 16.48v49.082c0 9.086 7.394 16.48 16.48 16.48zm-1.48-65.562c0-.817.664-1.48 1.48-1.48h32.18c.816 0 1.48.663 1.48 1.48v49.082c0 .816-.664 1.48-1.48 1.48h-32.18c-.816 0-1.48-.664-1.48-1.48zM87.676 323.285c9.086 0 16.476-7.39 16.476-16.48v-49.082c0-9.086-7.39-16.477-16.476-16.477H55.492c-9.086 0-16.476 7.39-16.476 16.477v49.082c0 9.086 7.39 16.48 16.476 16.48zm-33.66-16.476v-49.082c0-.817.664-1.48 1.476-1.48h32.184a1.48 1.48 0 011.476 1.48v49.082c0 .812-.66 1.476-1.476 1.476H55.492a1.48 1.48 0 01-1.476-1.476zm402.492-175.332h-32.184c-9.086 0-16.476 7.39-16.476 16.48v49.082c0 9.086 7.39 16.477 16.476 16.477h32.184c9.086 0 16.476-7.391 16.476-16.477v-49.082c0-9.09-7.39-16.48-16.476-16.48zm1.476 65.558c0 .817-.66 1.48-1.476 1.48h-32.184a1.481 1.481 0 01-1.476-1.48v-49.082a1.48 1.48 0 011.476-1.476h32.184a1.48 1.48 0 011.476 1.476zm0 0"/><path d="M481.059 90.844h-97.223V57.387c7.437-2.989 12.715-10.262 12.715-18.758V20.215C396.55 9.07 387.48 0 376.336 0H204.094a7.5 7.5 0 100 15h172.242a5.221 5.221 0 015.215 5.215v18.418a5.221 5.221 0 01-5.215 5.215H135.668a5.221 5.221 0 01-5.215-5.215V20.215A5.219 5.219 0 01135.668 15h38.426c4.14 0 7.5-3.36 7.5-7.5s-3.36-7.5-7.5-7.5h-38.426c-11.148 0-20.215 9.066-20.215 20.215v18.418c0 8.492 5.274 15.77 12.715 18.754v33.46H30.941C13.883 90.845 0 104.728 0 121.79v381.957c0 4.14 3.36 7.5 7.5 7.5h497c4.14 0 7.5-3.36 7.5-7.5V121.79c0-17.062-13.883-30.945-30.941-30.945zm-337.891-32h225.668v237.73H219.8a146.443 146.443 0 00-51.426 9.285 147.966 147.966 0 00-25.207 12.246zm-13.066 287.879a132.944 132.944 0 0133.398-22.52v34.434c0 25.148-20.46 45.61-45.61 45.61H75.243a81.817 81.817 0 0111.168-13.962c.02-.02.035-.039.055-.055 0 0 42.39-42.355 43.637-43.507zM15 121.789c0-8.793 7.152-15.945 15.941-15.945h97.227v222.77a147.93 147.93 0 00-12.34 11.03s-39.965 39.973-39.969 39.973c-17.578 17.586-27.886 41.793-28.343 66.653H15zm482 324.484h-88.906a7.498 7.498 0 00-7.5 7.504 7.5 7.5 0 007.5 7.5H497v34.97H15v-34.974l363.094.004a7.503 7.503 0 000-15.004H280v-71.62c0-15.329-12.469-27.798-27.797-27.798h-26.406c-15.328 0-27.797 12.47-27.797 27.797v71.621H62.547c.012-.539.02-1.078.043-1.617a81.299 81.299 0 015.172-25.41h50.129c33.418 0 60.609-27.187 60.609-60.61v-40.433c.078-.023.16-.055.238-.078a132.036 132.036 0 0139.442-6.54c.539-.007 278.82-.01 278.82-.01zm-284 0v-71.62c0-7.06 5.742-12.798 12.797-12.798h26.406c7.059 0 12.797 5.739 12.797 12.797v71.621zm209.848-149.699v-38.851c0-.813.664-1.477 1.48-1.477h32.18c.816 0 1.48.66 1.48 1.477v38.851zm74.152 0h-24.016v-38.851c0-9.086-7.39-16.477-16.476-16.477h-32.184c-9.086 0-16.476 7.39-16.476 16.477v38.851h-24.016v-190.73h97.227c8.789 0 15.941 7.152 15.941 15.945zm0 0"/></svg>