<svg width="13" height="13" xmlns="http://www.w3.org/2000/svg"><path d="M2.504 5.007A2.507 2.507 0 010 2.504 2.507 2.507 0 012.504 0a2.507 2.507 0 012.503 2.504 2.507 2.507 0 01-2.503 2.503zm0-3.826a1.324 1.324 0 101.322 1.323c0-.73-.593-1.323-1.322-1.323zm7.65 11.477a2.506 2.506 0 01-2.503-2.504 2.506 2.506 0 012.503-2.502 2.507 2.507 0 012.505 2.502 2.507 2.507 0 01-2.505 2.504zm0-3.825a1.323 1.323 0 000 2.644c.73 0 1.324-.593 1.324-1.323 0-.729-.594-1.321-1.324-1.321zM.59 12.659a.59.59 0 01-.417-1.008L11.652.173a.59.59 0 11.834.835L1.008 12.486a.588.588 0 01-.418.173z"/></svg>