<svg xmlns="http://www.w3.org/2000/svg" width="210mm" height="297mm" viewBox="0 0 744.094 1052.362"><circle cx="229.591" cy="452.246" r="215.458" fill="red"/><circle cy="452.246" cx="519.538" r="215.458" fill="#fc0"/><path d="M374.548 293.19a215.458 215.458 0 00-70.47 159.058 215.458 215.458 0 0070.502 159.054 215.458 215.458 0 0070.47-159.054 215.458 215.458 0 00-70.502-159.058z" fill="#d45500"/><g style="line-height:125%;-inkscape-font-specification:Sans;text-align:center"><path d="M31.625 403.645v92.875h21.312v-36.571c-.132-8.551-.395-16.97-.527-25.39 1.974 6.315 3.947 12.76 5.789 18.812 1.578 4.867 3.025 9.34 4.472 13.813l9.867 29.336h17.101c1.974-5.789 3.947-11.708 5.92-17.497 2.368-6.84 4.736-13.812 6.972-20.653 2.631-8.156 5.13-16.312 7.63-24.468-.263 8.287-.526 16.707-.526 25.126v37.492h22.232v-92.875h-31.572c-1.579 4.867-3.157 9.866-4.867 14.865-2.105 6.71-4.473 13.418-6.578 20.259a959.421 959.421 0 00-7.104 23.81c-2.5-8.024-4.867-16.049-7.498-24.205a1783.717 1783.717 0 00-11.445-34.73H31.625zm157.33 26.178c-2.894-1.973-8.42-5.788-17.628-5.788-10.655 0-20.39 5.262-26.836 13.682-6.972 9.471-7.762 19.074-7.762 23.284 0 15.26 8.42 24.732 12.498 28.415 8.287 7.63 16.444 8.55 20.916 8.55 10.524 0 16.181-4.603 19.601-7.103v5.657h20.654v-71.038h-21.443v4.341zm-26.179 42.623c-3.157-3.026-4.867-7.104-4.867-11.313 0-8.814 7.235-16.181 16.05-16.181 8.945 0 16.048 7.235 16.18 16.049 0 8.945-7.104 16.05-16.05 16.18-4.209 0-8.418-1.841-11.313-4.735zm106.089-26.047c-.131-1.053-.131-3.815-1.184-6.84-1.973-6.052-8.42-15.392-24.337-15.392-9.866 0-20.127 4.341-24.863 13.55-1.052 1.841-2.368 4.998-2.368 10.129 0 2.631.263 8.814 5.525 14.076 2.894 2.762 6.578 4.867 14.734 6.972 5.657 1.447 8.814 1.842 10.787 4.21.921 1.315 1.184 2.762 1.184 3.42 0 1.579-1.184 5.525-5.92 5.657-.526 0-1.973-.132-3.288-.921-3.026-1.579-3.158-5-3.42-6.052H214.14c.263 1.58.526 5.394 2.63 9.34 1.316 2.632 3.421 5 5.658 6.841 3.42 2.894 9.471 6.71 19.995 6.71 12.366 0 19.47-5.394 22.759-9.078 5.393-5.788 5.788-11.576 5.788-14.865 0-6.446-2.236-11.708-7.63-15.523-4.736-3.552-9.209-4.604-14.734-5.92-4.21-1.184-6.972-1.973-8.55-3.025-1.448-1.053-2.368-2.631-2.368-4.605 0-2.894 2.104-5.393 5.13-5.393.92 0 1.973.263 2.763.79 2.236 1.315 2.63 3.42 2.894 5.919h20.39zm8.087-42.754v21.574h-7.893v16.576h7.63v54.725h21.575v-54.594h9.208v-16.575h-9.077v-21.706h-21.443zm50.438 49.068c.659-1.315 1.316-2.5 2.369-3.552.263-.394 1.578-1.841 3.157-2.762 3.157-2.236 6.446-3.289 10.261-3.289 10.13 0 14.207 6.446 15.918 9.603H327.39zm51.963 15.523c.264-2.5.527-4.867.527-7.367 0-10.655-5.13-21.18-13.155-27.888-9.209-7.893-19.47-8.814-23.68-8.814-10.918 0-21.574 4.999-28.546 13.418-7.63 9.209-8.55 19.075-8.55 23.548 0 10.918 5.13 21.705 13.417 28.546 9.34 7.63 19.47 8.42 23.943 8.42 13.68 0 21.705-6.71 25.389-10.393 5.393-5.262 7.235-9.866 8.55-12.892H355.28c-1.316 1.315-1.842 1.71-2.763 2.236-2.5 1.71-6.051 2.5-9.208 2.5-5.657 0-11.05-2.368-14.471-6.973-1.184-1.578-2.368-4.078-2.5-4.34h53.015zm5.126-42.622v70.906h21.443v-39.597c.131-3.552.526-4.999 1.578-6.578 3.29-4.999 11.708-5.262 12.366-5.262 1.71-.131 3.026.132 4.473.263v-19.995c-2.763 0-9.866-.526-16.18 5.788-1.711 1.71-3.29 3.815-3.684 4.341v-9.866h-19.996zm135.887 12.76c-1.579-5.393-4.868-16.312-16.313-25.652-12.234-9.998-24.6-11.05-30.65-11.05-11.84 0-20.391 4.078-24.206 6.314-7.499 4.473-24.074 17.496-24.074 42.754 0 13.287 4.999 21.837 8.025 26.179 4.735 6.84 17.233 21.31 40.78 21.31 5.394 0 9.604-.788 11.577-1.315 6.577-1.578 21.443-7.366 30.388-23.942 1.447-2.762 2.631-5.393 4.604-11.445h-25.784c-1.447 2.368-1.973 3.157-2.894 4.341-3.552 4.21-8.682 6.578-10.13 7.104-1.578.526-4.209 1.316-8.024 1.316-14.339 0-20.916-10.788-22.758-15.129-.658-1.578-1.71-4.604-1.842-9.077 0-9.734 5.525-18.548 14.602-22.363 1.71-.79 5.13-2.105 9.998-2.105 7.499 0 14.208 3.289 18.68 9.208.79 1.184 1.58 2.237 2.237 3.552h25.784zm53.274-8.551c-2.893-1.973-8.418-5.788-17.627-5.788-10.656 0-20.39 5.262-26.836 13.682-6.973 9.471-7.762 19.074-7.762 23.284 0 15.26 8.42 24.732 12.498 28.415 8.287 7.63 16.443 8.55 20.916 8.55 10.524 0 16.18-4.603 19.601-7.103v5.657h20.654v-71.038H573.64v4.341zm-26.178 42.623c-3.157-3.026-4.867-7.104-4.867-11.313 0-8.814 7.235-16.181 16.05-16.181 8.945 0 16.048 7.235 16.18 16.049 0 8.945-7.104 16.05-16.05 16.18-4.209 0-8.419-1.841-11.313-4.735zm55.31-46.832v70.906h21.443v-39.597c.132-3.552.526-4.999 1.579-6.578 3.288-4.999 11.708-5.262 12.365-5.262 1.71-.131 3.026.132 4.473.263v-19.995c-2.762 0-9.866-.526-16.18 5.788-1.71 1.71-3.29 3.815-3.684 4.341v-9.866h-19.996zm91.949 4.341c-3.026-1.973-8.42-5.788-17.628-5.788-10.655 0-20.522 5.262-26.836 13.681-7.104 9.34-7.761 19.075-7.761 23.285 0 15.26 8.419 24.731 12.365 28.415 8.288 7.63 16.444 8.55 21.048 8.55 10.393 0 16.181-4.604 19.47-7.103l.131 5.525h20.522v-92.875h-21.31v26.31zm-26.31 42.622c-3.026-3.157-4.736-7.235-4.736-11.444 0-8.814 7.104-16.05 16.05-16.05 8.813-.131 16.049 7.104 16.049 16.05 0 8.813-7.104 16.049-16.05 16.049-4.21 0-8.419-1.842-11.313-4.605z" style="-inkscape-font-specification:'Avant Garde BQ Bold'" font-weight="700" font-size="111.411" font-family="Avant Garde BQ" letter-spacing="-5.686" word-spacing="0" text-anchor="middle" fill="#fff"/></g></svg>