<svg xmlns="http://www.w3.org/2000/svg" width="26" height="20"><path d="M24.28 0H1.72A1.7 1.7 0 000 1.67v16.66A1.7 1.7 0 001.72 20h22.56A1.7 1.7 0 0026 18.33V1.67A1.7 1.7 0 0024.28 0zM1.72 1.43h22.56a.246.246 0 01.25.24v11.09l-3.93-4.9a1.565 1.565 0 00-2.39-.09l-5.1 5.48a.485.485 0 01-.55.08l-4.19-2.57a2.307 2.307 0 00-2.45.11l-4.45 3.29V1.67a.246.246 0 01.25-.24zm22.56 17.14H1.72a.246.246 0 01-.25-.24v-2.37L6.81 12a.839.839 0 01.77-.03l4.2 2.57a1.983 1.983 0 002.42-.33l5.1-5.48a.126.126 0 01.07-.04.091.091 0 01.07.05l5.09 6.35v3.24a.246.246 0 01-.25.24zM10.86 9.68a2.536 2.536 0 10-2.6-2.54 2.578 2.578 0 002.6 2.54zm0-3.64a1.105 1.105 0 11-1.13 1.1 1.125 1.125 0 011.13-1.1z" fill="#fff" fill-rule="evenodd"/></svg>