<svg xmlns="http://www.w3.org/2000/svg" width="26" height="20" viewBox="0 0 26 20">
  <metadata><?xpacket begin="﻿" id="W5M0MpCehiHzreSzNTczkc9d"?>
<x:xmpmeta xmlns:x="adobe:ns:meta/" x:xmptk="Adobe XMP Core 5.6-c142 79.160924, 2017/07/13-01:06:39        ">
   <rdf:RDF xmlns:rdf="http://www.w3.org/1999/02/22-rdf-syntax-ns#">
      <rdf:Description rdf:about=""/>
   </rdf:RDF>
</x:xmpmeta>
                                                                                                    
                                                                                                    
                                                                                                    
                                                                                                    
                                                                                                    
                                                                                                    
                                                                                                    
                                                                                                    
                                                                                                    
                                                                                                    
                                                                                                    
                                                                                                    
                                                                                                    
                                                                                                    
                                                                                                    
                                                                                                    
                                                                                                    
                                                                                                    
                                                                                                    
                                                                                                    
                           
<?xpacket end="w"?></metadata>
<defs>
    <style>
      .cls-1 {
        fill: #fff;
        fill-rule: evenodd;
      }
    </style>
  </defs>
  <path id="image" class="cls-1" d="M1025.28,1485h-22.56a1.7,1.7,0,0,0-1.72,1.67v16.66a1.7,1.7,0,0,0,1.72,1.67h22.56a1.7,1.7,0,0,0,1.72-1.67v-16.66A1.7,1.7,0,0,0,1025.28,1485Zm-22.56,1.43h22.56a0.246,0.246,0,0,1,.25.24v11.09l-3.93-4.9a1.565,1.565,0,0,0-2.39-.09l-5.1,5.48a0.485,0.485,0,0,1-.55.08l-4.19-2.57a2.307,2.307,0,0,0-2.45.11l-4.45,3.29v-12.49A0.246,0.246,0,0,1,1002.72,1486.43Zm22.56,17.14h-22.56a0.246,0.246,0,0,1-.25-0.24v-2.37l5.34-3.96a0.839,0.839,0,0,1,.77-0.03l4.2,2.57a1.983,1.983,0,0,0,2.42-.33l5.1-5.48a0.126,0.126,0,0,1,.07-0.04,0.091,0.091,0,0,1,.07.05l5.09,6.35v3.24A0.246,0.246,0,0,1,1025.28,1503.57Zm-13.42-8.89a2.536,2.536,0,1,0-2.6-2.54A2.578,2.578,0,0,0,1011.86,1494.68Zm0-3.64a1.105,1.105,0,1,1-1.13,1.1A1.125,1.125,0,0,1,1011.86,1491.04Z" transform="translate(-1001 -1485)"/>
</svg>
