<svg xmlns="http://www.w3.org/2000/svg" width="21" height="21"><path d="M19.94 1.05a3.573 3.573 0 00-5.06 0l-3.83 3.83a3.558 3.558 0 00-.71 4.05l-1.41 1.41a3.558 3.558 0 00-4.05.71l-3.83 3.82a3.589 3.589 0 005.07 5.08l3.83-3.83a3.594 3.594 0 00.62-4.23l1.32-1.32a3.594 3.594 0 004.23-.62l3.83-3.83a3.594 3.594 0 00-.01-5.07zM8.78 14.95l-3.83 3.83a1.934 1.934 0 01-2.73-2.74l3.83-3.82a1.9 1.9 0 011.56-.56l-1.02 1.02a1.135 1.135 0 000 1.6 1.123 1.123 0 001.59 0l1.11-1.11a1.927 1.927 0 01-.51 1.78zm9.99-10l-3.82 3.83a1.927 1.927 0 01-1.78.51l.68-.68a1.135 1.135 0 000-1.6 1.123 1.123 0 00-1.59 0l-.6.6a1.928 1.928 0 01.56-1.56l3.83-3.83a1.927 1.927 0 112.72 2.73z" fill-rule="evenodd"/></svg>