<svg xmlns="http://www.w3.org/2000/svg" width="21" height="21" viewBox="0 0 21 21">
  <metadata><?xpacket begin="﻿" id="W5M0MpCehiHzreSzNTczkc9d"?>
<x:xmpmeta xmlns:x="adobe:ns:meta/" x:xmptk="Adobe XMP Core 5.6-c142 79.160924, 2017/07/13-01:06:39        ">
   <rdf:RDF xmlns:rdf="http://www.w3.org/1999/02/22-rdf-syntax-ns#">
      <rdf:Description rdf:about=""/>
   </rdf:RDF>
</x:xmpmeta>
                                                                                                    
                                                                                                    
                                                                                                    
                                                                                                    
                                                                                                    
                                                                                                    
                                                                                                    
                                                                                                    
                                                                                                    
                                                                                                    
                                                                                                    
                                                                                                    
                                                                                                    
                                                                                                    
                                                                                                    
                                                                                                    
                                                                                                    
                                                                                                    
                                                                                                    
                                                                                                    
                           
<?xpacket end="w"?></metadata>
<defs>
    <style>
      .cls-1 {
        fill-rule: evenodd;
      }
    </style>
  </defs>
  <path id="icon" class="cls-1" d="M1023.94,1833.05a3.573,3.573,0,0,0-5.06,0l-3.83,3.83a3.558,3.558,0,0,0-.71,4.05l-1.41,1.41a3.558,3.558,0,0,0-4.05.71l-3.83,3.82a3.589,3.589,0,0,0,5.07,5.08l3.83-3.83a3.594,3.594,0,0,0,.62-4.23l1.32-1.32a3.594,3.594,0,0,0,4.23-.62l3.83-3.83A3.594,3.594,0,0,0,1023.94,1833.05Zm-11.16,13.9-3.83,3.83a1.934,1.934,0,0,1-2.73-2.74l3.83-3.82a1.9,1.9,0,0,1,1.56-.56l-1.02,1.02a1.135,1.135,0,0,0,0,1.6,1.123,1.123,0,0,0,1.59,0l1.11-1.11A1.927,1.927,0,0,1,1012.78,1846.95Zm9.99-10-3.82,3.83a1.927,1.927,0,0,1-1.78.51l0.68-.68a1.135,1.135,0,0,0,0-1.6,1.123,1.123,0,0,0-1.59,0l-0.6.6a1.928,1.928,0,0,1,.56-1.56l3.83-3.83A1.927,1.927,0,1,1,1022.77,1836.95Z" transform="translate(-1004 -1832)"/>
</svg>
