<svg xmlns="http://www.w3.org/2000/svg" width="26" height="22"><path data-name="Forma 1" d="M25.589 19.55a9.668 9.668 0 00-5.729-1.28A10.76 10.76 0 0022.7 11a11.353 11.353 0 10-11.348 11 11.686 11.686 0 004.559-.92c.046-.02.385-.18.446-.21 1.254-.56 4.954-1.91 8.336.1a.879.879 0 001.184-.27.823.823 0 00-.288-1.15zM16.242 6.83a2.467 2.467 0 013.088 1.52 2.369 2.369 0 01-1.573 3 2.473 2.473 0 01-3.088-1.53 2.355 2.355 0 011.573-2.99zm-4.895-4.1a2.376 2.376 0 11-2.45 2.38 2.412 2.412 0 012.45-2.38zM3.365 8.35a2.468 2.468 0 013.088-1.52 2.355 2.355 0 011.573 2.99 2.472 2.472 0 01-3.087 1.53 2.369 2.369 0 01-1.574-3zm6.472 8.57a2.5 2.5 0 01-3.423.53 2.331 2.331 0 01-.542-3.32 2.5 2.5 0 013.423-.52 2.321 2.321 0 01.542 3.31zm1.51-4.98a.941.941 0 11.972-.94.955.955 0 01-.972.94zm1.511 4.98a2.32 2.32 0 01.543-3.31 2.5 2.5 0 013.422.52 2.33 2.33 0 01-.542 3.32 2.5 2.5 0 01-3.423-.53z" fill="#fff" fill-rule="evenodd"/></svg>