<svg xmlns="http://www.w3.org/2000/svg" width="26" height="22" viewBox="0 0 26 22">
  <metadata><?xpacket begin="﻿" id="W5M0MpCehiHzreSzNTczkc9d"?>
<x:xmpmeta xmlns:x="adobe:ns:meta/" x:xmptk="Adobe XMP Core 5.6-c142 79.160924, 2017/07/13-01:06:39        ">
   <rdf:RDF xmlns:rdf="http://www.w3.org/1999/02/22-rdf-syntax-ns#">
      <rdf:Description rdf:about=""/>
   </rdf:RDF>
</x:xmpmeta>
                                                                                                    
                                                                                                    
                                                                                                    
                                                                                                    
                                                                                                    
                                                                                                    
                                                                                                    
                                                                                                    
                                                                                                    
                                                                                                    
                                                                                                    
                                                                                                    
                                                                                                    
                                                                                                    
                                                                                                    
                                                                                                    
                                                                                                    
                                                                                                    
                                                                                                    
                                                                                                    
                           
<?xpacket end="w"?></metadata>
<defs>
    <style>
      .cls-1 {
        fill: #fff;
        fill-rule: evenodd;
      }
    </style>
  </defs>
  <path id="Forma_1" data-name="Forma 1" class="cls-1" d="M637.589,1796.55a9.668,9.668,0,0,0-5.729-1.28A10.76,10.76,0,0,0,634.7,1788a11.353,11.353,0,1,0-11.348,11,11.686,11.686,0,0,0,4.559-.92c0.046-.02.385-0.18,0.446-0.21,1.254-.56,4.954-1.91,8.336.1a0.879,0.879,0,0,0,1.184-.27A0.823,0.823,0,0,0,637.589,1796.55Zm-9.347-12.72a2.467,2.467,0,0,1,3.088,1.52,2.369,2.369,0,0,1-1.573,3,2.473,2.473,0,0,1-3.088-1.53A2.355,2.355,0,0,1,628.242,1783.83Zm-4.895-4.1a2.376,2.376,0,1,1-2.45,2.38A2.412,2.412,0,0,1,623.347,1779.73Zm-7.982,5.62a2.468,2.468,0,0,1,3.088-1.52,2.355,2.355,0,0,1,1.573,2.99,2.472,2.472,0,0,1-3.087,1.53A2.369,2.369,0,0,1,615.365,1785.35Zm6.472,8.57a2.5,2.5,0,0,1-3.423.53,2.331,2.331,0,0,1-.542-3.32,2.5,2.5,0,0,1,3.423-.52A2.321,2.321,0,0,1,621.837,1793.92Zm1.51-4.98a0.941,0.941,0,1,1,.972-0.94A0.955,0.955,0,0,1,623.347,1788.94Zm1.511,4.98a2.32,2.32,0,0,1,.543-3.31,2.5,2.5,0,0,1,3.422.52,2.33,2.33,0,0,1-.542,3.32A2.5,2.5,0,0,1,624.858,1793.92Z" transform="translate(-612 -1777)"/>
</svg>
