<svg xmlns="http://www.w3.org/2000/svg" width="190" height="66"><defs><filter id="a" width="212" height="88" x="-11" y="-11" filterUnits="userSpaceOnUse"><feOffset in="SourceGraphic" result="FeOffset1073Out"/><feGaussianBlur in="FeOffset1073Out" result="FeGaussianBlur1074Out" stdDeviation="2 2"/></filter><mask id="b" width="2" height="2" x="-1" y="-1"><path fill="#fff" d="M4 4h182v58H4z"/><path d="M15 4h169a2 2 0 012 2v54a2 2 0 01-2 2H15a2 2 0 01-2-2V30.72l-8.399-4.756c-.773-.439-.76-1.485 0-1.925.447-.258 4.51-2.564 8.399-4.765V6a2 2 0 012-2z"/></mask></defs><g filter="url(#a)"><path fill="none" d="M15 4h169a2 2 0 012 2v54a2 2 0 01-2 2H15a2 2 0 01-2-2V30.72l-8.399-4.756c-.773-.439-.76-1.485 0-1.925.447-.258 4.51-2.564 8.399-4.765V6a2 2 0 012-2z" mask="url(&quot;#b&quot;)"/><path fill-opacity=".25" d="M15 4h169a2 2 0 012 2v54a2 2 0 01-2 2H15a2 2 0 01-2-2V30.72l-8.399-4.756c-.773-.439-.76-1.485 0-1.925.447-.258 4.51-2.564 8.399-4.765V6a2 2 0 012-2z"/></g><path fill="#fff" d="M15 4h169a2 2 0 012 2v54a2 2 0 01-2 2H15a2 2 0 01-2-2V30.72l-8.399-4.756c-.773-.439-.76-1.485 0-1.925.447-.258 4.51-2.564 8.399-4.765V6a2 2 0 012-2z"/></svg>