<svg xmlns="http://www.w3.org/2000/svg" viewBox="0 0 512.013 512.013"><path d="M511.911 199.227l-7.859-50.594a8.526 8.526 0 00-3.447-5.615c-1.852-1.331-4.156-1.835-6.409-1.493l-36.207 6.135-3.797-16.555 34.074-7.569a8.56 8.56 0 005.41-3.849 8.533 8.533 0 001.024-6.554L486.167 79c-1.126-4.497-5.632-7.245-10.129-6.263l-76.8 17.067a8.56 8.56 0 00-5.41 3.849 8.533 8.533 0 00-1.024 6.554l8.533 34.133c.947 3.874 4.42 6.468 8.252 6.468.614 0 1.237-.068 1.86-.196l26.069-5.794 3.601 15.701-375.595 63.607-3.695-14.797 33.886-7.535a8.56 8.56 0 005.41-3.849 8.533 8.533 0 001.024-6.554l-8.533-34.133c-1.118-4.489-5.632-7.228-10.129-6.263l-76.8 17.067a8.584 8.584 0 00-5.41 3.857 8.533 8.533 0 00-1.024 6.554l8.533 34.133a8.527 8.527 0 008.269 6.468c.614 0 1.237-.068 1.86-.196l26.249-5.828 3.49 13.952-33.007 5.589c-4.599.785-7.723 5.12-7.006 9.728l7.859 50.594a8.517 8.517 0 003.43 5.598 8.489 8.489 0 005 1.621c.461 0 .922-.043 1.391-.119l164.216-27.076-14.609 116.804H162.13c-19.14 0-34.133 11.785-34.133 26.82v6.101c0 15.027 14.993 26.812 34.133 26.812h187.733c11.725 0 34.133-10.445 34.133-26.82v-6.101c0-15.036-14.993-26.812-34.133-26.812h-5.265L328.53 251.186c-.026-3.413-.384-6.733-.896-10.01l177.365-32.247c4.557-.828 7.621-5.137 6.912-9.702zm-96.051-77.09l-4.395-17.57L471.6 91.203l4.395 17.57-60.135 13.364zM209.063 251.741c0-28.237 22.963-51.2 51.2-51.2 28.237 0 51.2 22.963 51.2 51.2 0 .35.017.708.068 1.058l15.863 126.942H193.131l15.863-126.942a7.23 7.23 0 00.069-1.058zM23.327 190.403l-4.395-17.57 60.134-13.363 4.395 17.57-60.134 13.363zm8.704 81.366l-5.239-33.766 181.837-30.797c-9.02 10.445-14.925 23.629-16.282 38.135L32.031 271.769zm305.032 125.039h12.8c9.771 0 17.067 5.146 17.067 9.745v6.101c0 3.191-10.539 9.754-17.067 9.754H162.13c-9.771 0-17.067-5.154-17.067-9.754v-6.101c0-4.599 7.305-9.745 17.067-9.745h174.933zM322.932 224.69c-5.845-13.491-15.949-24.687-28.578-32.009l194.142-32.879 5.256 33.826-170.82 31.062z"/><path d="M255.997 226.141c-14.114 0-25.6 11.486-25.6 25.6s11.486 25.6 25.6 25.6 25.6-11.486 25.6-25.6-11.486-25.6-25.6-25.6zm0 34.133c-4.702 0-8.533-3.823-8.533-8.533s3.831-8.533 8.533-8.533 8.533 3.823 8.533 8.533-3.832 8.533-8.533 8.533z"/></svg>