<svg height="640" viewBox="0 0 480 480" width="640" xmlns="http://www.w3.org/2000/svg"><path d="M240 0C107.453 0 0 107.453 0 240s107.453 240 240 240 240-107.453 240-240C479.852 107.516 372.484.148 240 0zm0 464C116.29 464 16 363.71 16 240S116.29 16 240 16s224 100.29 224 224c-.14 123.652-100.348 223.86-224 224zm0 0"/><path d="M240 40C129.543 40 40 129.543 40 240s89.543 200 200 200 200-89.543 200-200c-.125-110.406-89.594-199.875-200-200zm0 384c-101.621 0-184-82.379-184-184S138.379 56 240 56s184 82.379 184 184c-.113 101.574-82.426 183.887-184 184zm0 0"/><path d="M357.824 122.176a8 8 0 00-9.601-1.29l-142.825 81.512c-.085.059-.125.153-.214.204-.914.785-1.77 1.64-2.559 2.558-.05.086-.145.13-.2.215l-81.538 142.824a8.006 8.006 0 001.293 9.621 8.006 8.006 0 009.62 1.293l142.802-81.511c.086-.059.125-.153.214-.204.914-.785 1.77-1.64 2.559-2.558.05-.086.145-.13.2-.215l81.538-142.8a8 8 0 00-1.289-9.65zM149.313 330.688L211.12 222.44l46.48 46.438zm119.566-73.086l-46.399-46.403 108.247-61.808zM112 232H80a8 8 0 000 16h32a8 8 0 000-16zm288 0h-32a8 8 0 000 16h32a8 8 0 000-16zM240 120a8 8 0 008-8V80a8 8 0 00-16 0v32a8 8 0 008 8zm0 240a8 8 0 00-8 8v32a8 8 0 0016 0v-32a8 8 0 00-8-8zm0 0"/></svg>